PathFileType	4	(X/Y/Z)	60_1_21_p0_0-316.trc
DataRate	CameraRate	NumFrames	NumMarkers	Units	OrigDataRate	OrigDataStartFrame	OrigNumFrames
45.0	45.0	7	27	m	45.0	158	317
Frame#	Time	RHip			RKnee			RAnkle			RBigToe			RSmallToe			RHeel			LHip			LKnee			LAnkle			LBigToe			LSmallToe			LHeel			Neck			Head			Nose			RShoulder			RElbow			RWrist			RThumb			RIndex			RPinky			LShoulder			LElbow			LWrist			LThumb			LIndex			LPinky			
		X1	Y1	Z1	X2	Y2	Z2	X3	Y3	Z3	X4	Y4	Z4	X5	Y5	Z5	X6	Y6	Z6	X7	Y7	Z7	X8	Y8	Z8	X9	Y9	Z9	X10	Y10	Z10	X11	Y11	Z11	X12	Y12	Z12	X13	Y13	Z13	X14	Y14	Z14	X15	Y15	Z15	X16	Y16	Z16	X17	Y17	Z17	X18	Y18	Z18	X19	Y19	Z19	X20	Y20	Z20	X21	Y21	Z21	X22	Y22	Z22	X23	Y23	Z23	X24	Y24	Z24	X25	Y25	Z25	X26	Y26	Z26	X27	Y27	Z27	
158	3.511111111111111	0.33446548816925536	0.4511407188592799	-0.22399102530831042	0.3229705931588659	0.6398429172028975	0.21747332911543146	0.3018516919576787	0.7825027142337702	0.592747491479054	0.2665320118246114	0.5944743247966496	0.6561791176576156	0.3334520325317935	0.6539741695333311	0.6557164999826938	0.2800963313671106	0.9057947804413455	0.6615081613554193	0.12498857774281208	0.47249378069845016	-0.2173323733303055	0.1310438535591536	0.6515318822139916	0.21738672435905587	0.1363118727523869	0.7977926906991462	0.587779873055044	0.12150237486115588	0.6025124624124558	0.6518581571538237	0.07918222968047597	0.6800408729312476	0.6508154649678205	0.14664787047460046	0.8863318966163471	0.6334036988402243	0.19887094417803813	0.28356796093735404	-0.7726842757042405	0.19666833351877175	0.2185414129096431	-0.9869114980476448	0.2519860885848739	0.1626618958573135	-0.8726055052339967	0.35311361893117654	0.23587296373767408	-0.7211894692505691	0.44114035425160675	0.009428484312060227	-0.7857573942576357	0.5067453967733243	-0.20216112997088345	-0.8882948851517307	0.5615169714897303	-0.36390223818312384	-0.9214143438845392	0.5690865565792883	-0.35867628316210437	-0.9171917687369305	0.5884105431382848	-0.3227440496572993	-0.8772845396185643	0.046014428061088485	0.2948483138381419	-0.6819287101535837	-0.0060640785946848245	0.467501441964228	-0.49453498785572286	0.06790404951870845	0.34484821505004404	-0.3252845211559994	0.12993397955614538	0.2763064426281738	-0.25558393484169634	0.11431340080065731	0.2683671146597013	-0.22313056352065058	0.0766369075490191	0.3397368732662537	-0.20874012629407415
159	3.533333333333333	0.330656808975798	0.4656117034319484	-0.22451137511277056	0.3229601632892068	0.6401396840306139	0.21754884993839205	0.3016613487189108	0.7830555068471722	0.5885063219091847	0.26987121057325364	0.6070885830904893	0.6615437737702258	0.33262356322129666	0.6505252297915534	0.6553098360250714	0.28009200171741905	0.9058644967028822	0.6617207068386887	0.11714144567115288	0.4730892522362298	-0.21704482631589145	0.12664447937779766	0.6498300692054083	0.2174079190845703	0.13613996657946983	0.797479183513222	0.5877697882205433	0.1213951010169803	0.6022001380963361	0.6520081460528053	0.07901732106233256	0.678826284258032	0.6508289427809	0.14543552116923789	0.8831738369275216	0.6283383506224743	0.1986830027294449	0.28192238210933207	-0.7758800147428138	0.19684935780866372	0.21837820117835713	-0.9869087532172143	0.2520223064695031	0.1631273153659755	-0.8693178654942245	0.35315371918387095	0.2359432133348544	-0.7212492664941593	0.44095170066981265	0.008241318509411778	-0.7887336338478016	0.5104644226683565	-0.20200798828254074	-0.8883315683072182	0.5756723781033738	-0.3577975006140689	-0.9138954869692799	0.5795162125903685	-0.36022023134496045	-0.9163945588543826	0.6003928034228784	-0.3393353519791935	-0.868419441086963	0.04338976878843185	0.2823243336284617	-0.6791760247324018	-0.008444137102666649	0.45575701334503066	-0.4892139043882398	0.06395145423459013	0.34298923483008953	-0.32494919708247194	0.12976941837256117	0.2763973876460507	-0.25545591444752563	0.11465659136962056	0.27038118536335154	-0.21989376863531945	0.07625204525859089	0.33954364326237113	-0.20843287914337041
160	3.5555555555555554	0.3307040395974215	0.46564181782399544	-0.22453455501768943	0.31862959611475244	0.6381709552780652	0.21731848126204328	0.2980184259781997	0.7712745451375687	0.5988273391471594	0.2697139446323677	0.6058594900476578	0.6612711984618798	0.33303074035646024	0.6513303976566491	0.6636938658336166	0.2809833367426684	0.909008235193953	0.6666781995836446	0.117068910828733	0.47283312118608073	-0.21701614473987157	0.1266475772954491	0.649444088786698	0.21746153246657196	0.135637152110693	0.7972438489360594	0.588311621027409	0.12136330780448576	0.6022043911953964	0.6521005398496365	0.07887987129618461	0.6783585487305055	0.6509603974988857	0.14567999338059182	0.8844275397869593	0.6340870747458621	0.19886345587242785	0.2835964756259487	-0.7726361717939285	0.2040455949444349	0.22982624444916827	-0.9942584955803334	0.25516354709740563	0.1737682132928163	-0.8724465320700133	0.3531203367480358	0.23592846547645238	-0.7212868617306945	0.4437166625168725	-0.002157769419660074	-0.7820745697076609	0.5106879710792466	-0.20182233542292657	-0.8882610357501363	0.5868466202937355	-0.3506473594505201	-0.9145013625658224	0.5801320624450745	-0.3597991265656414	-0.9167076871066545	0.601230150944066	-0.33820622919556165	-0.8726957520158888	0.04334996516907893	0.282040209985168	-0.6792171318920953	-0.00874614054259801	0.4531198530438698	-0.49263979524517776	0.061124597814804706	0.3309236915070476	-0.323780459820267	0.12693666511378085	0.2800398682125872	-0.24746666075263163	0.11578259432590861	0.276112765845597	-0.2097917159907503	0.07187758088520856	0.33878672998986165	-0.2085397826692954
161	3.577777777777778	0.3307120138682905	0.46419943834636257	-0.23202363808113485	0.32283763152337247	0.6398982014207293	0.21724170612370547	0.2970272658479801	0.7678342182111819	0.5937891572042246	0.26985608863672583	0.6055085246219398	0.6609528318275749	0.33580473366536634	0.630709877894735	0.6511843203833363	0.2809532138701594	0.9087717491747693	0.6666028358236952	0.11749624948011086	0.4723965668955945	-0.22077773335020437	0.12640876355309694	0.6496115922101641	0.21734740713463976	0.1357574783144901	0.7974054725252991	0.5881591112367741	0.11690591209545233	0.6173190267051889	0.6552200261699442	0.07898186221306595	0.6779632385873986	0.6507261484474146	0.1454024006118057	0.8839459510862547	0.6288506473689764	0.19872998072272438	0.28184877895024385	-0.7759047891178109	0.20094867338816888	0.21776115608606897	-0.9903007599903569	0.25523475200980855	0.1733861017347693	-0.8757707516381374	0.35288434380351924	0.2341510196851831	-0.7241774079502467	0.44761450344504594	0.006255682729358291	-0.7850951521197342	0.5246082708078195	-0.20214825232388964	-0.8877676878646026	0.5966399010415266	-0.34925728854776517	-0.9090475069697243	0.5983504856092103	-0.3554657408129398	-0.920691801525687	0.6104063962248594	-0.3278616322005348	-0.8732692297708583	0.04441487999219715	0.2685300516119529	-0.6793000102840145	-0.008570925038666334	0.4524849138581411	-0.4964130923036619	0.06089393541640421	0.33084021819329534	-0.3237870014203114	0.12187010403795717	0.26121240174428856	-0.25825898829845856	0.11385872920538129	0.2677926041724785	-0.22308503970299234	0.07187437747999381	0.3397112358759961	-0.2084305005086855
162	3.6	0.33093805440525476	0.465025101925625	-0.22822083663930975	0.3184472444493638	0.6379170862807391	0.21729335602141592	0.2970199882464019	0.7677561766748272	0.593961299183385	0.26948658212957605	0.6045089703513606	0.6608766117655693	0.33902592475369897	0.642476136321309	0.6583316276145936	0.27998935929336577	0.9059136838159216	0.6622320703723628	0.1131869092605149	0.4709650876576955	-0.22033534451737494	0.12615724285829413	0.6492832209280792	0.21738627339397262	0.13048759189612347	0.7945050432606499	0.5880250604495945	0.11685102654813151	0.6172368729415812	0.6553322935094007	0.07780316559890091	0.6791920835718956	0.6547040853694903	0.14494593556538785	0.8831901209073897	0.6292166228455569	0.20213398272395447	0.2937869044731894	-0.7790777229965027	0.2040829864769238	0.22930179897897704	-0.9941738597705483	0.2552938517356938	0.17358437025667905	-0.8758011477775159	0.35317439704960885	0.23589185350794534	-0.721289079063659	0.45169021358398764	0.007886521285915127	-0.7852573320488011	0.5322693939040066	-0.19903566622284763	-0.882886258103631	0.6031757021038223	-0.35619266078952133	-0.9060138610445542	0.6097118580059905	-0.34562251104726593	-0.9201534614883768	0.6135352045033833	-0.3213513333332953	-0.877521336065835	0.048330446090031835	0.2701489960560557	-0.6763097143105125	-0.016276062292402704	0.45313432656088976	-0.49656484853264	0.056509974214531265	0.3269206937300381	-0.3272244129503373	0.12200020870834825	0.25873629640547174	-0.2714126228714804	0.11356058298063174	0.26694280106681173	-0.22702974010733576	0.08525309543763054	0.3256910266947747	-0.2126295832915542
163	3.6222222222222222	0.33140583608084767	0.4642666549090248	-0.23196308002961563	0.3183133803731976	0.6374345945096447	0.21333824093311204	0.2969957171555404	0.7678282675659653	0.5937848990221014	0.26954154283650744	0.6054516541243831	0.6612300320401856	0.3364664639083847	0.6638588582645755	0.6664323348297634	0.2800613894655361	0.9058998052176338	0.6618887546059968	0.11355446202172517	0.470236237286055	-0.22398376608080853	0.12562663099240304	0.6486892161813326	0.21379524510654274	0.13547274042275914	0.7968269632459333	0.5881714728583953	0.12139213123310297	0.602161662791326	0.6520224386273227	0.07877106976552439	0.6776310783597732	0.6509670833981555	0.1449240734941559	0.8826402527009772	0.6289617538636996	0.20210346617875616	0.2938385568847822	-0.7791244582703477	0.20420217860697676	0.22953778155642235	-0.9943164017310708	0.25508830201238303	0.17209466273374993	-0.8787507026788612	0.3532107935582055	0.23595985392254365	-0.7213605579313446	0.45178560692021075	0.00786828800647473	-0.7852486720796241	0.5398378232068994	-0.19087398501229536	-0.8857527006854758	0.6176349604940069	-0.33906756830151397	-0.909008516301032	0.6177855350035902	-0.33216847054602017	-0.924568481370268	0.6243715804546243	-0.31072718277185163	-0.8759055266661493	0.039460246886038886	0.28149318612730995	-0.6786936102067748	-0.02051265542446794	0.45026842628724806	-0.4962103052860017	0.05582882711831501	0.32387291673432517	-0.33446844102005685	0.1227205819394582	0.2589684695454257	-0.27515847344010497	0.11414008349636447	0.265689420286783	-0.2344072334704137	0.07620207681578076	0.33756829854534753	-0.21337373094986106
164	3.6444444444444444	0.33094319291375257	0.4649494456696578	-0.22823596335385707	0.31769567384528646	0.6358915304777351	0.2130876511197571	0.29698445061141676	0.7679586364723076	0.5939103081782711	0.27031536099309267	0.6066483271978126	0.6646406519708421	0.33611103030091743	0.661547690734472	0.6662410838486308	0.28099802814508995	0.9088209049584111	0.6663961915882682	0.11300754492323792	0.470896653762699	-0.2204067286217177	0.12164872982366923	0.6474123353624556	0.21383253374830513	0.13518374155710788	0.797038660945288	0.5885925479478767	0.12136992555271266	0.6015965857481494	0.6522684958461865	0.0777192997458701	0.6778495385475185	0.6547201182698762	0.14455183787897172	0.8822633381684084	0.6293350835424341	0.2020582668220721	0.29373785327718877	-0.7790814071247276	0.20101000334577043	0.21829693895358862	-0.9904998013714665	0.2550367757906587	0.17194771801752542	-0.8788078664601731	0.35328358248623665	0.23597491178381158	-0.7212639530535533	0.45605539985216376	0.009842004472802268	-0.7857845825346726	0.5440635254842439	-0.1888948405660109	-0.8834811308753815	0.633730059305272	-0.32048695893269297	-0.9065000662013813	0.6292672973547638	-0.3175428927879787	-0.9263006335483945	0.6354179808365713	-0.2964457573907673	-0.8799800702430096	0.03943025091911783	0.28104714653837054	-0.6786285257423115	-0.02583889248933217	0.4641653655026677	-0.49827490462559443	0.05579610760222729	0.3225020233301046	-0.33794328784319816	0.12240873765313932	0.2554711788138651	-0.28202230120569927	0.11388975968975355	0.2623839711031248	-0.24144278454699383	0.08519182306332584	0.3255177230834889	-0.21292081129840218
